<svg width="1400" height="420" viewBox="0 0 1400 420" fill="none" xmlns="http://www.w3.org/2000/svg">
<defs>
  
  <filter id="gy" x="-40%" y="-60%" width="180%" height="220%">
    <feGaussianBlur stdDeviation="10" result="b1"></feGaussianBlur>
    <feGaussianBlur stdDeviation="4" result="b2" in="SourceGraphic"></feGaussianBlur>
    <feMerge><feMergeNode in="b1"></feMergeNode><feMergeNode in="b1"></feMergeNode><feMergeNode in="b2"></feMergeNode><feMergeNode in="SourceGraphic"></feMergeNode></feMerge>
  </filter>
  <filter id="gc" x="-30%" y="-50%" width="160%" height="200%">
    <feGaussianBlur stdDeviation="7" result="b"></feGaussianBlur>
    <feMerge><feMergeNode in="b"></feMergeNode><feMergeNode in="b"></feMergeNode><feMergeNode in="SourceGraphic"></feMergeNode></feMerge>
  </filter>
  <filter id="gs" x="-20%" y="-20%" width="140%" height="140%">
    <feGaussianBlur stdDeviation="3" result="b"></feGaussianBlur>
    <feMerge><feMergeNode in="b"></feMergeNode><feMergeNode in="SourceGraphic"></feMergeNode></feMerge>
  </filter>
  <filter id="gr" x="-30%" y="-50%" width="160%" height="200%">
    <feGaussianBlur stdDeviation="6" result="b"></feGaussianBlur>
    <feMerge><feMergeNode in="b"></feMergeNode><feMergeNode in="SourceGraphic"></feMergeNode></feMerge>
  </filter>

  
  <radialGradient id="rbg" cx="50%" cy="20%" r="75%">
    <stop offset="0%" stop-color="#100d22"></stop>
    <stop offset="55%" stop-color="#08080e"></stop>
    <stop offset="100%" stop-color="#020205"></stop>
  </radialGradient>

  
  <linearGradient id="ng" x1="0" y1="0" x2="1" y2="0">
    <stop offset="0%" stop-color="#fcee09"></stop>
    <stop offset="42%" stop-color="#00d4ff"></stop>
    <stop offset="100%" stop-color="#b44fff"></stop>
  </linearGradient>

  
  <linearGradient id="haze" x1="0" y1="0" x2="0" y2="1">
    <stop offset="0%" stop-color="#000" stop-opacity="0"></stop>
    <stop offset="100%" stop-color="#e00f3a" stop-opacity="0.14"></stop>
  </linearGradient>

  
  <pattern id="crt" x="0" y="0" width="1" height="4" patternUnits="userSpaceOnUse">
    <rect y="0" width="1400" height="1" fill="white" opacity="0.025"></rect>
  </pattern>

  
  <clipPath id="cl"><rect x="0" y="0" width="375" height="420"></rect></clipPath>
  <clipPath id="cr"><rect x="1025" y="0" width="375" height="420"></rect></clipPath>
</defs>


<rect width="1400" height="420" fill="url(#rbg)"></rect>


<g stroke="#00d4ff" stroke-width="0.5" opacity="0.04">
  <line x1="100" y1="0" x2="100" y2="420"></line>
  <line x1="200" y1="0" x2="200" y2="420"></line>
  <line x1="300" y1="0" x2="300" y2="420"></line>
  <line x1="400" y1="0" x2="400" y2="420"></line>
  <line x1="500" y1="0" x2="500" y2="420"></line>
  <line x1="600" y1="0" x2="600" y2="420"></line>
  <line x1="700" y1="0" x2="700" y2="420"></line>
  <line x1="800" y1="0" x2="800" y2="420"></line>
  <line x1="900" y1="0" x2="900" y2="420"></line>
  <line x1="1000" y1="0" x2="1000" y2="420"></line>
  <line x1="1100" y1="0" x2="1100" y2="420"></line>
  <line x1="1200" y1="0" x2="1200" y2="420"></line>
  <line x1="1300" y1="0" x2="1300" y2="420"></line>
</g>

<g stroke="#fcee09" stroke-width="0.5" opacity="0.035">
  <line x1="0" y1="70" x2="1400" y2="70"></line>
  <line x1="0" y1="140" x2="1400" y2="140"></line>
  <line x1="0" y1="210" x2="1400" y2="210"></line>
  <line x1="0" y1="280" x2="1400" y2="280"></line>
  <line x1="0" y1="350" x2="1400" y2="350"></line>
</g>


<g clip-path="url(#cl)" fill="#07070e">
  <rect x="0" y="238" width="34" height="182"></rect>
  <rect x="38" y="285" width="54" height="135"></rect>
  <rect x="96" y="210" width="28" height="210"></rect>
  <rect x="128" y="258" width="46" height="162"></rect>
  <rect x="178" y="244" width="30" height="176"></rect>
  <rect x="212" y="298" width="60" height="122"></rect>
  <rect x="276" y="268" width="38" height="152"></rect>
  <rect x="318" y="282" width="50" height="138"></rect>
</g>

<g>
  <rect x="5" y="248" width="5" height="4" fill="#fcee09" opacity="0.8" filter="url(#gs)"></rect>
  <rect x="15" y="248" width="5" height="4" fill="#00d4ff" opacity="0.6" filter="url(#gs)"></rect>
  <rect x="5" y="262" width="5" height="4" fill="#fcee09" opacity="0.45"></rect>
  <rect x="22" y="262" width="5" height="4" fill="#fcee09" opacity="0.9" filter="url(#gs)"></rect>
  <rect x="15" y="278" width="5" height="4" fill="#00d4ff" opacity="0.7"></rect>
  <rect x="5" y="290" width="5" height="4" fill="#fcee09" opacity="0.3"></rect>
  <rect x="22" y="290" width="5" height="4" fill="#00d4ff" opacity="0.5"></rect>
  <rect x="99" y="218" width="4" height="3" fill="#fcee09" opacity="0.9" filter="url(#gs)"></rect>
  <rect x="108" y="218" width="4" height="3" fill="#fcee09" opacity="0.55"></rect>
  <rect x="117" y="218" width="4" height="3" fill="#00d4ff" opacity="0.7" filter="url(#gs)"></rect>
  <rect x="99" y="230" width="4" height="3" fill="#00d4ff" opacity="0.4"></rect>
  <rect x="108" y="230" width="4" height="3" fill="#fcee09" opacity="0.8"></rect>
  <rect x="99" y="242" width="4" height="3" fill="#fcee09" opacity="0.6"></rect>
  <rect x="117" y="242" width="4" height="3" fill="#fcee09" opacity="1" filter="url(#gs)"></rect>
  <rect x="108" y="254" width="4" height="3" fill="#00d4ff" opacity="0.5"></rect>
  <rect x="99" y="266" width="4" height="3" fill="#fcee09" opacity="0.3"></rect>
  <rect x="130" y="266" width="4" height="4" fill="#fcee09" opacity="0.7"></rect>
  <rect x="140" y="266" width="4" height="4" fill="#00d4ff" opacity="0.5"></rect>
  <rect x="152" y="266" width="4" height="4" fill="#fcee09" opacity="0.9" filter="url(#gs)"></rect>
  <rect x="130" y="280" width="4" height="4" fill="#fcee09" opacity="0.4"></rect>
  <rect x="152" y="280" width="4" height="4" fill="#00d4ff" opacity="0.8"></rect>
  <rect x="180" y="252" width="4" height="4" fill="#fcee09" opacity="0.7"></rect>
  <rect x="188" y="252" width="4" height="4" fill="#00d4ff" opacity="0.6"></rect>
  <rect x="196" y="252" width="4" height="4" fill="#fcee09" opacity="0.4"></rect>
  <rect x="180" y="264" width="4" height="4" fill="#fcee09" opacity="0.9" filter="url(#gs)"></rect>
  <rect x="278" y="276" width="4" height="4" fill="#fcee09" opacity="0.7" filter="url(#gs)"></rect>
  <rect x="287" y="276" width="4" height="4" fill="#00d4ff" opacity="0.5"></rect>
  <rect x="296" y="276" width="4" height="4" fill="#fcee09" opacity="0.3"></rect>
  <rect x="278" y="288" width="4" height="4" fill="#fcee09" opacity="0.8"></rect>
  <rect x="296" y="288" width="4" height="4" fill="#00d4ff" opacity="0.6"></rect>
  <rect x="320" y="292" width="4" height="4" fill="#fcee09" opacity="0.5"></rect>
  <rect x="330" y="292" width="4" height="4" fill="#00d4ff" opacity="0.8" filter="url(#gs)"></rect>
  <rect x="342" y="292" width="4" height="4" fill="#fcee09" opacity="0.4"></rect>
</g>

<rect x="96" y="210" width="74" height="2" fill="#00d4ff" opacity="0.7" filter="url(#gs)"></rect>
<rect x="0" y="238" width="88" height="1.5" fill="#fcee09" opacity="0.45"></rect>
<rect x="276" y="268" width="38" height="2" fill="#e00f3a" opacity="0.6" filter="url(#gs)"></rect>
<line x1="178" y1="244" x2="178" y2="420" stroke="#00d4ff" stroke-width="0.5" opacity="0.3"></line>


<g clip-path="url(#cr)" fill="#07070e">
  <rect x="1366" y="238" width="34" height="182"></rect>
  <rect x="1308" y="285" width="54" height="135"></rect>
  <rect x="1276" y="210" width="28" height="210"></rect>
  <rect x="1226" y="258" width="46" height="162"></rect>
  <rect x="1192" y="244" width="30" height="176"></rect>
  <rect x="1128" y="298" width="60" height="122"></rect>
  <rect x="1086" y="268" width="38" height="152"></rect>
  <rect x="1032" y="282" width="50" height="138"></rect>
</g>

<g>
  <rect x="1380" y="248" width="5" height="4" fill="#00d4ff" opacity="0.8" filter="url(#gs)"></rect>
  <rect x="1370" y="248" width="5" height="4" fill="#fcee09" opacity="0.55"></rect>
  <rect x="1370" y="262" width="5" height="4" fill="#fcee09" opacity="0.75" filter="url(#gs)"></rect>
  <rect x="1380" y="276" width="5" height="4" fill="#00d4ff" opacity="0.6"></rect>
  <rect x="1370" y="290" width="5" height="4" fill="#fcee09" opacity="0.4"></rect>
  <rect x="1279" y="218" width="4" height="3" fill="#fcee09" opacity="0.9" filter="url(#gs)"></rect>
  <rect x="1288" y="218" width="4" height="3" fill="#00d4ff" opacity="0.7"></rect>
  <rect x="1297" y="218" width="4" height="3" fill="#fcee09" opacity="0.5" filter="url(#gs)"></rect>
  <rect x="1279" y="230" width="4" height="3" fill="#00d4ff" opacity="0.5"></rect>
  <rect x="1288" y="230" width="4" height="3" fill="#fcee09" opacity="0.8"></rect>
  <rect x="1279" y="242" width="4" height="3" fill="#fcee09" opacity="0.7"></rect>
  <rect x="1297" y="242" width="4" height="3" fill="#00d4ff" opacity="0.9" filter="url(#gs)"></rect>
  <rect x="1228" y="266" width="4" height="4" fill="#fcee09" opacity="0.7" filter="url(#gs)"></rect>
  <rect x="1238" y="266" width="4" height="4" fill="#00d4ff" opacity="0.5"></rect>
  <rect x="1250" y="266" width="4" height="4" fill="#fcee09" opacity="0.9"></rect>
  <rect x="1228" y="280" width="4" height="4" fill="#00d4ff" opacity="0.6"></rect>
  <rect x="1250" y="280" width="4" height="4" fill="#fcee09" opacity="0.4"></rect>
  <rect x="1194" y="252" width="4" height="4" fill="#fcee09" opacity="0.8" filter="url(#gs)"></rect>
  <rect x="1202" y="252" width="4" height="4" fill="#00d4ff" opacity="0.6"></rect>
  <rect x="1194" y="264" width="4" height="4" fill="#fcee09" opacity="0.4"></rect>
  <rect x="1088" y="276" width="4" height="4" fill="#fcee09" opacity="0.7" filter="url(#gs)"></rect>
  <rect x="1097" y="276" width="4" height="4" fill="#00d4ff" opacity="0.5"></rect>
  <rect x="1106" y="276" width="4" height="4" fill="#fcee09" opacity="0.9"></rect>
  <rect x="1088" y="288" width="4" height="4" fill="#00d4ff" opacity="0.8" filter="url(#gs)"></rect>
  <rect x="1106" y="288" width="4" height="4" fill="#fcee09" opacity="0.3"></rect>
  <rect x="1034" y="292" width="4" height="4" fill="#fcee09" opacity="0.6"></rect>
  <rect x="1044" y="292" width="4" height="4" fill="#00d4ff" opacity="0.9" filter="url(#gs)"></rect>
  <rect x="1056" y="292" width="4" height="4" fill="#fcee09" opacity="0.4"></rect>
</g>

<rect x="1230" y="210" width="74" height="2" fill="#00d4ff" opacity="0.7" filter="url(#gs)"></rect>
<rect x="1312" y="238" width="88" height="1.5" fill="#fcee09" opacity="0.45"></rect>
<rect x="1086" y="268" width="38" height="2" fill="#e00f3a" opacity="0.6" filter="url(#gs)"></rect>
<line x1="1222" y1="244" x2="1222" y2="420" stroke="#00d4ff" stroke-width="0.5" opacity="0.3"></line>


<rect x="0" y="200" width="1400" height="220" fill="url(#haze)"></rect>



<path d="M22,8 L8,8 L8,60" stroke="#fcee09" stroke-width="2.5" fill="none" filter="url(#gs)"></path>
<path d="M1378,8 L1392,8 L1392,60" stroke="#fcee09" stroke-width="2.5" fill="none" filter="url(#gs)"></path>
<path d="M22,412 L8,412 L8,360" stroke="#00d4ff" stroke-width="2.5" fill="none" filter="url(#gs)"></path>
<path d="M1378,412 L1392,412 L1392,360" stroke="#00d4ff" stroke-width="2.5" fill="none" filter="url(#gs)"></path>

<circle cx="8" cy="8" r="3.5" fill="#fcee09" filter="url(#gs)"></circle>
<circle cx="1392" cy="8" r="3.5" fill="#fcee09" filter="url(#gs)"></circle>
<circle cx="8" cy="412" r="3.5" fill="#00d4ff" filter="url(#gs)"></circle>
<circle cx="1392" cy="412" r="3.5" fill="#00d4ff" filter="url(#gs)"></circle>


<line x1="42" y1="18" x2="42" y2="402" stroke="#1e1e32" stroke-width="1"></line>

<g stroke="#fcee09" stroke-width="1" opacity="0.3">
  <line x1="36" y1="52" x2="50" y2="52"></line>
  <line x1="36" y1="86" x2="50" y2="86"></line>
  <line x1="36" y1="120" x2="50" y2="120"></line>
  <line x1="36" y1="154" x2="50" y2="154"></line>
</g>
<text x="55" y="56" fill="#444455" font-size="9" font-family="&#39;Courier New&#39;,monospace" letter-spacing="1">SYS</text>
<text x="55" y="90" fill="#444455" font-size="9" font-family="&#39;Courier New&#39;,monospace" letter-spacing="1">HUD</text>
<text x="55" y="124" fill="#444455" font-size="9" font-family="&#39;Courier New&#39;,monospace" letter-spacing="1">NET</text>
<text x="55" y="158" fill="#444455" font-size="9" font-family="&#39;Courier New&#39;,monospace" letter-spacing="1">LOG</text>

<rect x="30" y="178" width="90" height="5" rx="1" fill="#13131e"></rect>
<rect x="30" y="178" width="62" height="5" rx="1" fill="#fcee09" opacity="0.55"></rect>
<rect x="30" y="192" width="90" height="5" rx="1" fill="#13131e"></rect>
<rect x="30" y="192" width="35" height="5" rx="1" fill="#00d4ff" opacity="0.55"></rect>
<rect x="30" y="206" width="90" height="5" rx="1" fill="#13131e"></rect>
<rect x="30" y="206" width="76" height="5" rx="1" fill="#e00f3a" opacity="0.45"></rect>

<circle cx="34" cy="230" r="4" fill="#fcee09" opacity="0.85" filter="url(#gs)"></circle>
<text x="44" y="234" fill="#fcee09" opacity="0.8" font-size="9" font-family="&#39;Courier New&#39;,monospace" letter-spacing="1">ONLINE</text>
<circle cx="34" cy="250" r="4" fill="#00d4ff" opacity="0.85" filter="url(#gs)"></circle>
<text x="44" y="254" fill="#00d4ff" opacity="0.8" font-size="9" font-family="&#39;Courier New&#39;,monospace" letter-spacing="1">SYNC</text>
<circle cx="34" cy="270" r="4" fill="#b44fff" opacity="0.85" filter="url(#gs)"></circle>
<text x="44" y="274" fill="#b44fff" opacity="0.8" font-size="9" font-family="&#39;Courier New&#39;,monospace" letter-spacing="1">PWA</text>
<circle cx="34" cy="290" r="4" fill="#e00f3a" opacity="0.85" filter="url(#gs)"></circle>
<text x="44" y="294" fill="#e00f3a" opacity="0.8" font-size="9" font-family="&#39;Courier New&#39;,monospace" letter-spacing="1">PUSH</text>


<line x1="1358" y1="18" x2="1358" y2="402" stroke="#1e1e32" stroke-width="1"></line>
<g stroke="#b44fff" stroke-width="1" opacity="0.3">
  <line x1="1350" y1="52" x2="1364" y2="52"></line>
  <line x1="1350" y1="86" x2="1364" y2="86"></line>
  <line x1="1350" y1="120" x2="1364" y2="120"></line>
  <line x1="1350" y1="154" x2="1364" y2="154"></line>
</g>

<path d="M1330,52 L1358,80 L1330,108 L1302,80 Z" fill="none" stroke="#b44fff" stroke-width="1.5" opacity="0.55"></path>
<path d="M1330,62 L1350,80 L1330,98 L1310,80 Z" fill="#b44fff" opacity="0.07"></path>
<text x="1330" y="84" fill="#b44fff" font-size="9" font-family="&#39;Courier New&#39;,monospace" text-anchor="middle" opacity="0.7" letter-spacing="1">AS</text>

<rect x="1280" y="178" width="90" height="5" rx="1" fill="#13131e"></rect>
<rect x="1308" y="178" width="62" height="5" rx="1" fill="#b44fff" opacity="0.45"></rect>
<rect x="1280" y="192" width="90" height="5" rx="1" fill="#13131e"></rect>
<rect x="1335" y="192" width="35" height="5" rx="1" fill="#fcee09" opacity="0.45"></rect>
<rect x="1280" y="206" width="90" height="5" rx="1" fill="#13131e"></rect>
<rect x="1294" y="206" width="76" height="5" rx="1" fill="#00d4ff" opacity="0.35"></rect>

<text x="1348" y="234" fill="#444455" font-size="9" font-family="&#39;Courier New&#39;,monospace" text-anchor="end" letter-spacing="1">v2.077</text>
<text x="1348" y="254" fill="#444455" font-size="9" font-family="&#39;Courier New&#39;,monospace" text-anchor="end" letter-spacing="1">GH-PGS</text>
<text x="1348" y="274" fill="#444455" font-size="9" font-family="&#39;Courier New&#39;,monospace" text-anchor="end" letter-spacing="1">SUPA</text>
<text x="1348" y="294" fill="#444455" font-size="9" font-family="&#39;Courier New&#39;,monospace" text-anchor="end" letter-spacing="1">AUTH</text>


<rect x="390" y="18" width="620" height="1.5" fill="url(#ng)" opacity="0.75" filter="url(#gs)"></rect>
<rect x="390" y="400" width="620" height="1.5" fill="url(#ng)" opacity="0.55"></rect>



<text x="704" y="182" font-family="&#39;Arial Black&#39;,Impact,sans-serif" font-size="88" font-weight="900" text-anchor="middle" fill="#e00f3a" opacity="0.22" letter-spacing="14">NIGHT CITY</text>
<text x="696" y="182" font-family="&#39;Arial Black&#39;,Impact,sans-serif" font-size="88" font-weight="900" text-anchor="middle" fill="#00d4ff" opacity="0.22" letter-spacing="14">NIGHT CITY</text>

<text x="700" y="182" font-family="&#39;Arial Black&#39;,Impact,sans-serif" font-size="88" font-weight="900" text-anchor="middle" fill="#fcee09" filter="url(#gy)" letter-spacing="14">NIGHT CITY</text>


<text x="700" y="248" font-family="&#39;Courier New&#39;,monospace" font-size="25" text-anchor="middle" fill="#00d4ff" filter="url(#gc)" letter-spacing="7">LIFE SYSTEM // ROUTINE OS</text>


<rect x="430" y="268" width="540" height="1.5" fill="url(#ng)" opacity="0.65"></rect>

<rect x="426" y="265" width="4" height="8" fill="#fcee09" opacity="0.6" filter="url(#gs)"></rect>
<rect x="970" y="265" width="4" height="8" fill="#b44fff" opacity="0.6" filter="url(#gs)"></rect>


<text x="700" y="298" font-family="&#39;Courier New&#39;,monospace" font-size="14" text-anchor="middle" fill="#d0d0d8" letter-spacing="5" opacity="0.85">SUPABASE SYNC  ·  PWA  ·  WEB PUSH  ·  SIDE DECK</text>


<rect x="432" y="314" width="100" height="22" rx="2" fill="#0c0c1a" stroke="#fcee09" stroke-width="1" stroke-opacity="0.6"></rect>
<text x="482" y="329" font-family="&#39;Courier New&#39;,monospace" font-size="10" text-anchor="middle" fill="#fcee09" letter-spacing="2" opacity="0.85">v2.077</text>

<rect x="544" y="314" width="148" height="22" rx="2" fill="#0c0c1a" stroke="#00d4ff" stroke-width="1" stroke-opacity="0.6"></rect>
<text x="618" y="329" font-family="&#39;Courier New&#39;,monospace" font-size="10" text-anchor="middle" fill="#00d4ff" letter-spacing="2" opacity="0.85">GITHUB PAGES</text>

<rect x="704" y="314" width="118" height="22" rx="2" fill="#0c0c1a" stroke="#b44fff" stroke-width="1" stroke-opacity="0.6"></rect>
<text x="763" y="329" font-family="&#39;Courier New&#39;,monospace" font-size="10" text-anchor="middle" fill="#b44fff" letter-spacing="2" opacity="0.85">SUPABASE</text>

<rect x="834" y="314" width="134" height="22" rx="2" fill="#0c0c1a" stroke="#e00f3a" stroke-width="1" stroke-opacity="0.6"></rect>
<text x="901" y="329" font-family="&#39;Courier New&#39;,monospace" font-size="10" text-anchor="middle" fill="#e00f3a" letter-spacing="2" opacity="0.85">WEB PUSH</text>


<rect x="0" y="408" width="1400" height="12" fill="#000" opacity="0.3"></rect>
<text x="700" y="419" font-family="&#39;Courier New&#39;,monospace" font-size="9" text-anchor="middle" fill="#222233" letter-spacing="4">ARASAKA CORP — ALL YOUR LIFE BELONG TO US</text>


<rect width="1400" height="420" fill="url(#crt)"></rect>
</svg>