<svg xmlns="http://www.w3.org/2000/svg" viewBox="0 0 64 64">
  
  <defs>
    <clipPath id="oct3"><path d="M14 2h36l12 12v36L50 62H14L2 50V14z"></path></clipPath>
  </defs>
  <g clip-path="url(#oct3)">
    <rect width="64" height="64" fill="#0d0d1a"></rect>
    <rect width="64" height="64" fill="#fcee09" opacity=".05"></rect>
    <g fill="#000" opacity=".18">
      <rect y="6" width="64" height="2"></rect><rect y="14" width="64" height="2"></rect><rect y="22" width="64" height="2"></rect>
      <rect y="30" width="64" height="2"></rect><rect y="38" width="64" height="2"></rect><rect y="46" width="64" height="2"></rect><rect y="54" width="64" height="2"></rect>
    </g>
    
    <path d="M22 12h20v16l-6 8h-8l-6-8z" fill="#fcee09" opacity=".16"></path>
    <path d="M22 12h20v16l-6 8h-8l-6-8z" fill="none" stroke="#fcee09" stroke-width="2" stroke-linecap="square"></path>
    
    <path d="M22 18h20" stroke="#fcee09" stroke-width="1.2" opacity=".7"></path>
    
    <path d="M25 25h5M36 23h4v4h-4z" stroke="#fcee09" stroke-width="2"></path>
    <path d="M40 25h6" stroke="#fcee09" stroke-width="1.2" opacity=".7"></path>
    
    <path d="M12 58c2-9 9-13 20-13s18 4 20 13" fill="#fcee09" opacity=".12"></path>
    <path d="M12 58c2-9 9-13 20-13s18 4 20 13" fill="none" stroke="#fcee09" stroke-width="2" stroke-linecap="square"></path>
    
    <path d="M26 46l6 6 6-6" fill="none" stroke="#fcee09" stroke-width="1.2" opacity=".7"></path>
    <path d="M30 52h4v6h-4z" fill="#fcee09"></path>
  </g>
  <path d="M14 2h36l12 12v36L50 62H14L2 50V14z" fill="none" stroke="#fcee09" stroke-width="2"></path>
</svg>