<svg xmlns="http://www.w3.org/2000/svg" viewBox="0 0 64 64">

  <defs>
    <clipPath id="oct2"><path d="M14 2h36l12 12v36L50 62H14L2 50V14z"></path></clipPath>
  </defs>
  <g clip-path="url(#oct2)">
    <rect width="64" height="64" fill="#0d0d1a"></rect>
    <rect width="64" height="64" fill="#e00f3a" opacity=".06"></rect>
    <g fill="#000" opacity=".18">
      <rect y="6" width="64" height="2"></rect><rect y="14" width="64" height="2"></rect><rect y="22" width="64" height="2"></rect>
      <rect y="30" width="64" height="2"></rect><rect y="38" width="64" height="2"></rect><rect y="46" width="64" height="2"></rect><rect y="54" width="64" height="2"></rect>
    </g>


    <g stroke="#e00f3a" stroke-width="1" opacity=".18">
      <path d="M32 2v5M14 6l4 5M50 6l-4 5M6 18l6 3M58 18l-6 3"></path>
    </g>


    <path d="M32 3v8" stroke="#e00f3a" stroke-width="2" stroke-linecap="square"></path>
    <path d="M23 7c2.5 3.5 5.5 5 9 5s6.5-1.5 9-5" fill="none" stroke="#e00f3a" stroke-width="2" stroke-linecap="square"></path>
    <path d="M27 6c1.5 2 3 3 5 3s3.5-1 5-3" fill="none" stroke="#e00f3a" stroke-width="1" opacity=".6"></path>


    <path d="M20 22c0-7.5 5.5-12 12-12s12 4.5 12 12v3H20z" fill="#e00f3a" opacity=".18"></path>
    <path d="M20 22c0-7.5 5.5-12 12-12s12 4.5 12 12v3H20z" fill="none" stroke="#e00f3a" stroke-width="2" stroke-linecap="square"></path>

    <path d="M32 10v15M26 12c-2 2.8-3 6-3 13M38 12c2 2.8 3 6 3 13M29 10.5c-1 3-1.5 8-1.5 14.5M35 10.5c1 3 1.5 8 1.5 14.5" stroke="#e00f3a" stroke-width=".9" opacity=".55"></path>
    <path d="M24 20h.01M32 18h.01M40 20h.01" stroke="#e00f3a" stroke-width="2" stroke-linecap="round"></path>


    <path d="M20 22l-7-4v9l7 2M44 22l7-4v9l-7 2" fill="#e00f3a" opacity=".16"></path>
    <path d="M20 22l-7-4v9l7 2M44 22l7-4v9l-7 2" fill="none" stroke="#e00f3a" stroke-width="1.6" stroke-linecap="square"></path>
    <path d="M15 21v6M49 21v6" stroke="#e00f3a" stroke-width=".9" opacity=".55"></path>


    <path d="M19 25h26" stroke="#e00f3a" stroke-width="2.6"></path>
    <path d="M21 27h22" stroke="#e00f3a" stroke-width="1" opacity=".5"></path>


    <path d="M24 30l7 1.5M40 30l-7 1.5" stroke="#e00f3a" stroke-width="2.2"></path>


    <path d="M23 33v4l5 6h8l5-6v-4" fill="#e00f3a" opacity=".12"></path>
    <path d="M23 33v4l5 6h8l5-6v-4" fill="none" stroke="#e00f3a" stroke-width="1.8" stroke-linecap="square"></path>

    <path d="M32 32v4" stroke="#e00f3a" stroke-width="1.2" opacity=".8"></path>
    <path d="M27 37h10M28.5 40h7" stroke="#e00f3a" stroke-width="1.1" opacity=".75"></path>
    <path d="M29 37v3M32 37v3.5M35 37v3" stroke="#e00f3a" stroke-width=".8" opacity=".6"></path>


    <path d="M23 41l-4 5M41 41l4 5" stroke="#e00f3a" stroke-width="1.5" opacity=".85"></path>
    <path d="M25 43l-3 4M39 43l3 4" stroke="#e00f3a" stroke-width="1" opacity=".55"></path>


    <path d="M12 58c2-9 9-13 20-13s18 4 20 13" fill="#e00f3a" opacity=".14"></path>
    <path d="M12 58c2-9 9-13 20-13s18 4 20 13" fill="none" stroke="#e00f3a" stroke-width="2" stroke-linecap="square"></path>
    <path d="M13 51h11M40 51h11M14 54.5h9M41 54.5h9M15 58h8M41 58h8" stroke="#e00f3a" stroke-width="1.1" opacity=".6"></path>

    <path d="M17 52.8h.01M21 52.8h.01M43 52.8h.01M47 52.8h.01" stroke="#e00f3a" stroke-width="1.8" stroke-linecap="round" opacity=".8"></path>


    <path d="M45 45L59 31" stroke="#e00f3a" stroke-width="2" stroke-linecap="square"></path>
    <path d="M47.5 47.5l-4-4" stroke="#e00f3a" stroke-width="1.6"></path>
    <path d="M44.5 44l2-2" stroke="#e00f3a" stroke-width="2.6"></path>
    <path d="M56 33l1.2 1.2M54 35l1.2 1.2" stroke="#e00f3a" stroke-width=".9" opacity=".7"></path>


    <path d="M30 48h4v4h-4z" fill="#e00f3a"></path>
    <path d="M30 52l-2 3M34 52l2 3" stroke="#e00f3a" stroke-width="1.1" opacity=".7"></path>
  </g>
  <path d="M14 2h36l12 12v36L50 62H14L2 50V14z" fill="none" stroke="#e00f3a" stroke-width="2"></path>
  <path d="M14 2h6M2 14v6M62 50v-6M50 62h-6" stroke="#e00f3a" stroke-width="3.5" opacity=".85"></path>
</svg>