<svg xmlns="http://www.w3.org/2000/svg" viewBox="0 0 64 64">

  <defs>
    <clipPath id="oct"><path d="M14 2h36l12 12v36L50 62H14L2 50V14z"></path></clipPath>
  </defs>
  <g clip-path="url(#oct)">
    <rect width="64" height="64" fill="#0d0d1a"></rect>
    <rect width="64" height="64" fill="#00d4ff" opacity=".06"></rect>
    <g fill="#000" opacity=".18">
      <rect y="6" width="64" height="2"></rect><rect y="14" width="64" height="2"></rect><rect y="22" width="64" height="2"></rect>
      <rect y="30" width="64" height="2"></rect><rect y="38" width="64" height="2"></rect><rect y="46" width="64" height="2"></rect><rect y="54" width="64" height="2"></rect>
    </g>


    <g stroke="#00d4ff" stroke-width="1" opacity=".22">
      <path d="M8 8v7M8 19v4M56 10v5M56 21v6M12 36v6M52 34v8"></path>
    </g>


    <path d="M20 20c0-8 5-12 12-12s12 4 12 12" fill="none" stroke="#00d4ff" stroke-width="2" stroke-linecap="square"></path>
    <path d="M18 20h4v8h-4zM42 20h4v8h-4z" fill="#00d4ff" opacity=".25"></path>
    <path d="M18 20h4v8h-4zM42 20h4v8h-4z" fill="none" stroke="#00d4ff" stroke-width="1.6"></path>

    <path d="M46 20l5-6M51 14h3" stroke="#00d4ff" stroke-width="1.4" stroke-linecap="square"></path>


    <path d="M23 16h18v14l-5 8h-8l-5-8z" fill="#00d4ff" opacity=".14"></path>
    <path d="M23 16h18v14l-5 8h-8l-5-8z" fill="none" stroke="#00d4ff" stroke-width="2" stroke-linecap="square"></path>

    <path d="M27 16v-3h10v3" fill="none" stroke="#00d4ff" stroke-width="1.2" opacity=".7"></path>
    <path d="M32 13v3" stroke="#00d4ff" stroke-width="1" opacity=".6"></path>


    <path d="M22 22h20v6H22z" fill="#00d4ff" opacity=".3"></path>
    <path d="M22 22h20v6H22z" fill="none" stroke="#00d4ff" stroke-width="1.8"></path>
    <path d="M25 25h5M33 25h3M38.5 25h1.5" stroke="#0d0d1a" stroke-width="1.6"></path>
    <path d="M24 23.2h16" stroke="#0d0d1a" stroke-width=".8" opacity=".7"></path>


    <path d="M28 32h8M29 35h6" stroke="#00d4ff" stroke-width="1.2" opacity=".75"></path>
    <path d="M30.5 37.5h3" stroke="#00d4ff" stroke-width="1" opacity=".6"></path>


    <path d="M26 38c-2 3-2 5-5 7M38 38c2 3 2 5 5 7" fill="none" stroke="#00d4ff" stroke-width="1.3" opacity=".8"></path>
    <path d="M24 41c-1.5 2-2.5 3-5 4" fill="none" stroke="#00d4ff" stroke-width="1" opacity=".5"></path>


    <path d="M12 58c2-9 9-13 20-13s18 4 20 13" fill="#00d4ff" opacity=".14"></path>
    <path d="M12 58c2-9 9-13 20-13s18 4 20 13" fill="none" stroke="#00d4ff" stroke-width="2" stroke-linecap="square"></path>

    <path d="M22 48l10 4 10-4" fill="none" stroke="#00d4ff" stroke-width="1.3" opacity=".8"></path>
    <path d="M16 52h8M40 52h8" stroke="#00d4ff" stroke-width="1.1" opacity=".6"></path>


    <path d="M29 50h6v6h-6z" fill="none" stroke="#00d4ff" stroke-width="1.4"></path>
    <path d="M30.5 52h3M30.5 54h3" stroke="#00d4ff" stroke-width="1"></path>

    <path d="M26 53h1.6M36.5 53h1.6" stroke="#00d4ff" stroke-width="1.6"></path>
  </g>
  <path d="M14 2h36l12 12v36L50 62H14L2 50V14z" fill="none" stroke="#00d4ff" stroke-width="2"></path>
  <path d="M14 2h6M2 14v6M62 50v-6M50 62h-6" stroke="#00d4ff" stroke-width="3.5" opacity=".85"></path>
</svg>